<svg width="2258" height="352" viewBox="0 0 2258 352" fill="none" xmlns="http://www.w3.org/2000/svg">
<path d="M0 242.05H93.09V270.38H66.38V338.46H27.59V270.38H0V242.05Z" fill="#4983E4"/>
<path d="M140.24 281L120.64 338.46H83.38L119.92 242.05H160.38L197.79 338.46H160.08L140.24 281Z" fill="#4983E4"/>
<path d="M188.89 242.05H281.98V270.38H255.28V338.46H216.5V270.38H188.89V242.05Z" fill="#4983E4"/>
<path d="M329.14 281L309.54 338.46H272.28L308.83 242.05H349.28L386.68 338.46H348.98L329.14 281Z" fill="#4983E4"/>
<path fill-rule="evenodd" clip-rule="evenodd" d="M330.52 64.96C326.863 57.845 322.235 51.2722 316.77 45.43C303.97 31.62 285.92 20.12 264.55 12.22C243 4.22 218.43 0 193.46 0C168.49 0 143.92 4.22 122.34 12.22C101.01 20.12 82.95 31.62 70.15 45.43C64.6815 51.2755 60.0507 57.8515 56.39 64.97C84.21 58.22 131.8 49.36 175.98 48.42C180.24 48.33 183.18 49.7 185.11 52.15C187.46 55.15 187.28 65.76 187.23 70.51L185.97 193.43C188.46 193.51 190.97 193.57 193.46 193.57C195.95 193.57 198.46 193.57 200.99 193.44L199.73 70.51C199.66 65.76 199.48 55.13 201.84 52.15C203.78 49.7 206.71 48.33 210.97 48.42C255.13 49.35 302.7 58.24 330.52 64.96Z" fill="#4983E4"/>
<path fill-rule="evenodd" clip-rule="evenodd" d="M336.46 80.94C295.74 71.74 268.55 70.04 241.72 68.55C218.34 67.25 218.03 75.55 220.37 91.55C220.52 92.55 220.71 93.75 220.93 95.15C228.78 141.61 238.54 181.59 240.22 188.37C297.22 175.37 338.35 139.21 338.35 96.77C338.342 91.4342 337.708 86.1178 336.46 80.93" fill="#4983E4"/>
<path fill-rule="evenodd" clip-rule="evenodd" d="M166.58 91.56C168.91 75.56 168.58 67.25 145.23 68.56C118.39 70.05 91.2299 71.75 50.4699 80.96C49.2133 86.1431 48.5755 91.4568 48.5699 96.79C48.5699 115.13 56.0299 132.88 70.1499 148.13C82.9499 161.94 101.01 173.44 122.39 181.37C130.324 184.278 138.446 186.647 146.7 188.46C148.28 182.1 158.27 141.29 166.2 94C166.35 93.1 166.48 92.26 166.58 91.57" fill="#4983E4"/>
<path d="M476 242H569.09V270.33H542.38V338.41H503.59V270.33H476V242Z" fill="#4983E4"/>
<path d="M616.24 280.95L596.64 338.41H559.38L595.92 242H636.38L673.79 338.41H636.08L616.24 280.95Z" fill="#4983E4"/>
<path d="M664.89 242H757.98V270.33H731.28V338.41H692.5V270.33H664.89V242Z" fill="#4983E4"/>
<path d="M805.14 280.95L785.54 338.41H748.28L784.83 242H825.28L862.68 338.41H824.98L805.14 280.95Z" fill="#4983E4"/>
<path d="M959.993 316.765H918.345L910.673 338H897.521L932.045 243.059H946.43L980.817 338H967.665L959.993 316.765ZM956.431 306.627L939.169 258.403L921.907 306.627H956.431ZM1025.59 242.511C1036 242.511 1045 244.475 1052.58 248.402C1060.25 252.238 1066.1 257.764 1070.12 264.979C1074.23 272.194 1076.28 280.688 1076.28 290.461C1076.28 300.234 1074.23 308.728 1070.12 315.943C1066.1 323.067 1060.25 328.547 1052.58 332.383C1045 336.128 1036 338 1025.59 338H995.863V242.511H1025.59ZM1025.59 327.725C1037.92 327.725 1047.33 324.483 1053.81 317.998C1060.3 311.422 1063.54 302.243 1063.54 290.461C1063.54 278.588 1060.25 269.317 1053.68 262.65C1047.19 255.983 1037.83 252.649 1025.59 252.649H1008.33V327.725H1025.59ZM1171.64 242.511L1135.61 338H1121.22L1085.19 242.511H1098.48L1128.48 324.848L1158.49 242.511H1171.64ZM1241.75 316.765H1200.1L1192.43 338H1179.28L1213.8 243.059H1228.19L1262.58 338H1249.42L1241.75 316.765ZM1238.19 306.627L1220.93 258.403L1203.67 306.627H1238.19ZM1352.7 338H1340.23L1290.09 261.965V338H1277.62V242.374H1290.09L1340.23 318.272V242.374H1352.7V338ZM1369.29 290.187C1369.29 280.871 1371.39 272.514 1375.6 265.116C1379.8 257.627 1385.51 251.781 1392.72 247.58C1400.03 243.379 1408.11 241.278 1416.97 241.278C1427.38 241.278 1436.47 243.79 1444.23 248.813C1452 253.836 1457.66 260.96 1461.22 270.185H1446.29C1443.64 264.431 1439.8 260.001 1434.78 256.896C1429.85 253.791 1423.91 252.238 1416.97 252.238C1410.3 252.238 1404.32 253.791 1399.02 256.896C1393.73 260.001 1389.57 264.431 1386.56 270.185C1383.54 275.848 1382.03 282.515 1382.03 290.187C1382.03 297.768 1383.54 304.435 1386.56 310.189C1389.57 315.852 1393.73 320.236 1399.02 323.341C1404.32 326.446 1410.3 327.999 1416.97 327.999C1423.91 327.999 1429.85 326.492 1434.78 323.478C1439.8 320.373 1443.64 315.943 1446.29 310.189H1461.22C1457.66 319.322 1452 326.401 1444.23 331.424C1436.47 336.356 1427.38 338.822 1416.97 338.822C1408.11 338.822 1400.03 336.767 1392.72 332.657C1385.51 328.456 1379.8 322.656 1375.6 315.258C1371.39 307.86 1369.29 299.503 1369.29 290.187ZM1492.25 252.649V284.57H1527.04V294.845H1492.25V327.725H1531.15V338H1479.78V242.374H1531.15V252.649H1492.25ZM1579.75 242.511C1590.16 242.511 1599.16 244.475 1606.74 248.402C1614.41 252.238 1620.25 257.764 1624.27 264.979C1628.38 272.194 1630.44 280.688 1630.44 290.461C1630.44 300.234 1628.38 308.728 1624.27 315.943C1620.25 323.067 1614.41 328.547 1606.74 332.383C1599.16 336.128 1590.16 338 1579.75 338H1550.02V242.511H1579.75ZM1579.75 327.725C1592.08 327.725 1601.48 324.483 1607.97 317.998C1614.45 311.422 1617.7 302.243 1617.7 290.461C1617.7 278.588 1614.41 269.317 1607.83 262.65C1601.35 255.983 1591.99 252.649 1579.75 252.649H1562.48V327.725H1579.75ZM1713.68 338.959C1707.38 338.959 1701.72 337.863 1696.69 335.671C1691.76 333.388 1687.88 330.282 1685.05 326.355C1682.22 322.336 1680.76 317.724 1680.67 312.518H1693.95C1694.41 316.993 1696.24 320.784 1699.43 323.889C1702.72 326.903 1707.47 328.41 1713.68 328.41C1719.62 328.41 1724.28 326.949 1727.66 324.026C1731.13 321.012 1732.86 317.176 1732.86 312.518C1732.86 308.865 1731.86 305.896 1729.85 303.613C1727.84 301.33 1725.33 299.594 1722.31 298.407C1719.3 297.22 1715.24 295.941 1710.12 294.571C1703.82 292.927 1698.75 291.283 1694.91 289.639C1691.17 287.995 1687.93 285.438 1685.19 281.967C1682.54 278.405 1681.21 273.656 1681.21 267.719C1681.21 262.513 1682.54 257.901 1685.19 253.882C1687.84 249.863 1691.53 246.758 1696.28 244.566C1701.12 242.374 1706.65 241.278 1712.86 241.278C1721.81 241.278 1729.12 243.516 1734.78 247.991C1740.53 252.466 1743.78 258.403 1744.51 265.801H1730.81C1730.35 262.148 1728.43 258.951 1725.05 256.211C1721.67 253.38 1717.2 251.964 1711.63 251.964C1706.42 251.964 1702.17 253.334 1698.89 256.074C1695.6 258.723 1693.95 262.467 1693.95 267.308C1693.95 270.779 1694.91 273.61 1696.83 275.802C1698.84 277.994 1701.26 279.684 1704.09 280.871C1707.02 281.967 1711.08 283.246 1716.29 284.707C1722.59 286.442 1727.66 288.178 1731.49 289.913C1735.33 291.557 1738.62 294.16 1741.36 297.722C1744.1 301.193 1745.47 305.942 1745.47 311.97C1745.47 316.628 1744.23 321.012 1741.77 325.122C1739.3 329.232 1735.65 332.566 1730.81 335.123C1725.97 337.68 1720.26 338.959 1713.68 338.959ZM1830.67 242.511L1799.57 301.969V338H1787.1V301.969L1755.87 242.511H1769.7L1793.27 290.872L1816.83 242.511H1830.67ZM1874.1 338.959C1867.79 338.959 1862.13 337.863 1857.11 335.671C1852.18 333.388 1848.29 330.282 1845.46 326.355C1842.63 322.336 1841.17 317.724 1841.08 312.518H1854.37C1854.82 316.993 1856.65 320.784 1859.85 323.889C1863.14 326.903 1867.88 328.41 1874.1 328.41C1880.03 328.41 1884.69 326.949 1888.07 324.026C1891.54 321.012 1893.28 317.176 1893.28 312.518C1893.28 308.865 1892.27 305.896 1890.26 303.613C1888.25 301.33 1885.74 299.594 1882.73 298.407C1879.71 297.22 1875.65 295.941 1870.53 294.571C1864.23 292.927 1859.16 291.283 1855.33 289.639C1851.58 287.995 1848.34 285.438 1845.6 281.967C1842.95 278.405 1841.63 273.656 1841.63 267.719C1841.63 262.513 1842.95 257.901 1845.6 253.882C1848.25 249.863 1851.95 246.758 1856.7 244.566C1861.54 242.374 1867.06 241.278 1873.27 241.278C1882.22 241.278 1889.53 243.516 1895.19 247.991C1900.95 252.466 1904.19 258.403 1904.92 265.801H1891.22C1890.76 262.148 1888.85 258.951 1885.47 256.211C1882.09 253.38 1877.61 251.964 1872.04 251.964C1866.83 251.964 1862.59 253.334 1859.3 256.074C1856.01 258.723 1854.37 262.467 1854.37 267.308C1854.37 270.779 1855.33 273.61 1857.24 275.802C1859.25 277.994 1861.67 279.684 1864.51 280.871C1867.43 281.967 1871.49 283.246 1876.7 284.707C1883 286.442 1888.07 288.178 1891.91 289.913C1895.74 291.557 1899.03 294.16 1901.77 297.722C1904.51 301.193 1905.88 305.942 1905.88 311.97C1905.88 316.628 1904.65 321.012 1902.18 325.122C1899.71 329.232 1896.06 332.566 1891.22 335.123C1886.38 337.68 1880.67 338.959 1874.1 338.959ZM1983 242.511V252.649H1956.97V338H1944.5V252.649H1918.33V242.511H1983ZM2010.81 252.649V284.57H2045.61V294.845H2010.81V327.725H2049.72V338H1998.34V242.374H2049.72V252.649H2010.81ZM2165.44 243.196V338H2152.98V267.308L2121.47 338H2112.7L2081.05 267.171V338H2068.58V243.196H2082.01L2117.08 321.56L2152.15 243.196H2165.44ZM2216.86 338.959C2210.56 338.959 2204.9 337.863 2199.88 335.671C2194.94 333.388 2191.06 330.282 2188.23 326.355C2185.4 322.336 2183.94 317.724 2183.85 312.518H2197.14C2197.59 316.993 2199.42 320.784 2202.62 323.889C2205.9 326.903 2210.65 328.41 2216.86 328.41C2222.8 328.41 2227.46 326.949 2230.84 324.026C2234.31 321.012 2236.04 317.176 2236.04 312.518C2236.04 308.865 2235.04 305.896 2233.03 303.613C2231.02 301.33 2228.51 299.594 2225.49 298.407C2222.48 297.22 2218.42 295.941 2213.3 294.571C2207 292.927 2201.93 291.283 2198.09 289.639C2194.35 287.995 2191.11 285.438 2188.37 281.967C2185.72 278.405 2184.39 273.656 2184.39 267.719C2184.39 262.513 2185.72 257.901 2188.37 253.882C2191.02 249.863 2194.71 246.758 2199.46 244.566C2204.3 242.374 2209.83 241.278 2216.04 241.278C2224.99 241.278 2232.3 243.516 2237.96 247.991C2243.72 252.466 2246.96 258.403 2247.69 265.801H2233.99C2233.53 262.148 2231.61 258.951 2228.23 256.211C2224.85 253.38 2220.38 251.964 2214.81 251.964C2209.6 251.964 2205.36 253.334 2202.07 256.074C2198.78 258.723 2197.14 262.467 2197.14 267.308C2197.14 270.779 2198.09 273.61 2200.01 275.802C2202.02 277.994 2204.44 279.684 2207.27 280.871C2210.2 281.967 2214.26 283.246 2219.47 284.707C2225.77 286.442 2230.84 288.178 2234.67 289.913C2238.51 291.557 2241.8 294.16 2244.54 297.722C2247.28 301.193 2248.65 305.942 2248.65 311.97C2248.65 316.628 2247.41 321.012 2244.95 325.122C2242.48 329.232 2238.83 332.566 2233.99 335.123C2229.15 337.68 2223.44 338.959 2216.86 338.959Z" fill="#4983E4"/>
</svg>
