<svg width="1782" height="124" viewBox="0 0 1782 124" fill="none" xmlns="http://www.w3.org/2000/svg">
<path d="M0 14H93.09V42.33H66.38V110.41H27.59V42.33H0V14Z" fill="#4983E4"/>
<path d="M140.24 52.95L120.64 110.41H83.38L119.92 14H160.38L197.79 110.41H160.08L140.24 52.95Z" fill="#4983E4"/>
<path d="M188.89 14H281.98V42.33H255.28V110.41H216.5V42.33H188.89V14Z" fill="#4983E4"/>
<path d="M329.14 52.95L309.54 110.41H272.28L308.83 14H349.28L386.68 110.41H348.98L329.14 52.95Z" fill="#4983E4"/>
<path d="M483.993 88.765H442.345L434.673 110H421.521L456.045 15.059H470.43L504.817 110H491.665L483.993 88.765ZM480.431 78.627L463.169 30.403L445.907 78.627H480.431ZM549.592 14.511C560.004 14.511 569.001 16.4747 576.581 20.402C584.253 24.238 590.099 29.7637 594.117 36.979C598.227 44.1943 600.282 52.6883 600.282 62.461C600.282 72.2337 598.227 80.7277 594.117 87.943C590.099 95.067 584.253 100.547 576.581 104.383C569.001 108.128 560.004 110 549.592 110H519.863V14.511H549.592ZM549.592 99.725C561.922 99.725 571.33 96.4827 577.814 89.998C584.299 83.422 587.541 74.243 587.541 62.461C587.541 50.5877 584.253 41.3173 577.677 34.65C571.193 27.9827 561.831 24.649 549.592 24.649H532.33V99.725H549.592ZM695.639 14.511L659.608 110H645.223L609.192 14.511H622.481L652.484 96.848L682.487 14.511H695.639ZM765.753 88.765H724.105L716.433 110H703.281L737.805 15.059H752.19L786.577 110H773.425L765.753 88.765ZM762.191 78.627L744.929 30.403L727.667 78.627H762.191ZM876.699 110H864.232L814.09 33.965V110H801.623V14.374H814.09L864.232 90.272V14.374H876.699V110ZM893.293 62.187C893.293 52.871 895.394 44.514 899.595 37.116C903.797 29.6267 909.505 23.7813 916.72 19.58C924.027 15.3787 932.11 13.278 940.969 13.278C951.381 13.278 960.469 15.7897 968.232 20.813C975.996 25.8363 981.658 32.9603 985.22 42.185H970.287C967.639 36.431 963.803 32.0013 958.779 28.896C953.847 25.7907 947.911 24.238 940.969 24.238C934.302 24.238 928.32 25.7907 923.022 28.896C917.725 32.0013 913.569 36.431 910.555 42.185C907.541 47.8477 906.034 54.515 906.034 62.187C906.034 69.7677 907.541 76.435 910.555 82.189C913.569 87.8517 917.725 92.2357 923.022 95.341C928.32 98.4463 934.302 99.999 940.969 99.999C947.911 99.999 953.847 98.492 958.779 95.478C963.803 92.3727 967.639 87.943 970.287 82.189H985.22C981.658 91.3223 975.996 98.4007 968.232 103.424C960.469 108.356 951.381 110.822 940.969 110.822C932.11 110.822 924.027 108.767 916.72 104.657C909.505 100.456 903.797 94.656 899.595 87.258C895.394 79.86 893.293 71.503 893.293 62.187ZM1016.25 24.649V56.57H1051.04V66.845H1016.25V99.725H1055.15V110H1003.78V14.374H1055.15V24.649H1016.25ZM1103.75 14.511C1114.16 14.511 1123.16 16.4747 1130.74 20.402C1138.41 24.238 1144.25 29.7637 1148.27 36.979C1152.38 44.1943 1154.44 52.6883 1154.44 62.461C1154.44 72.2337 1152.38 80.7277 1148.27 87.943C1144.25 95.067 1138.41 100.547 1130.74 104.383C1123.16 108.128 1114.16 110 1103.75 110H1074.02V14.511H1103.75ZM1103.75 99.725C1116.08 99.725 1125.48 96.4827 1131.97 89.998C1138.45 83.422 1141.7 74.243 1141.7 62.461C1141.7 50.5877 1138.41 41.3173 1131.83 34.65C1125.35 27.9827 1115.99 24.649 1103.75 24.649H1086.48V99.725H1103.75ZM1237.68 110.959C1231.38 110.959 1225.72 109.863 1220.69 107.671C1215.76 105.388 1211.88 102.282 1209.05 98.355C1206.22 94.3363 1204.76 89.724 1204.67 84.518H1217.95C1218.41 88.9933 1220.24 92.7837 1223.43 95.889C1226.72 98.903 1231.47 100.41 1237.68 100.41C1243.62 100.41 1248.28 98.9487 1251.66 96.026C1255.13 93.012 1256.86 89.176 1256.86 84.518C1256.86 80.8647 1255.86 77.8963 1253.85 75.613C1251.84 73.3297 1249.33 71.5943 1246.31 70.407C1243.3 69.2197 1239.24 67.941 1234.12 66.571C1227.82 64.927 1222.75 63.283 1218.91 61.639C1215.17 59.995 1211.93 57.4377 1209.19 53.967C1206.54 50.405 1205.21 45.6557 1205.21 39.719C1205.21 34.513 1206.54 29.9007 1209.19 25.882C1211.84 21.8633 1215.53 18.758 1220.28 16.566C1225.12 14.374 1230.65 13.278 1236.86 13.278C1245.81 13.278 1253.12 15.5157 1258.78 19.991C1264.53 24.4663 1267.78 30.403 1268.51 37.801H1254.81C1254.35 34.1477 1252.43 30.951 1249.05 28.211C1245.67 25.3797 1241.2 23.964 1235.63 23.964C1230.42 23.964 1226.17 25.334 1222.89 28.074C1219.6 30.7227 1217.95 34.4673 1217.95 39.308C1217.95 42.7787 1218.91 45.61 1220.83 47.802C1222.84 49.994 1225.26 51.6837 1228.09 52.871C1231.02 53.967 1235.08 55.2457 1240.29 56.707C1246.59 58.4423 1251.66 60.1777 1255.49 61.913C1259.33 63.557 1262.62 66.16 1265.36 69.722C1268.1 73.1927 1269.47 77.942 1269.47 83.97C1269.47 88.628 1268.23 93.012 1265.77 97.122C1263.3 101.232 1259.65 104.566 1254.81 107.123C1249.97 109.68 1244.26 110.959 1237.68 110.959ZM1354.67 14.511L1323.57 73.969V110H1311.1V73.969L1279.87 14.511H1293.7L1317.27 62.872L1340.83 14.511H1354.67ZM1398.1 110.959C1391.79 110.959 1386.13 109.863 1381.11 107.671C1376.18 105.388 1372.29 102.282 1369.46 98.355C1366.63 94.3363 1365.17 89.724 1365.08 84.518H1378.37C1378.82 88.9933 1380.65 92.7837 1383.85 95.889C1387.14 98.903 1391.88 100.41 1398.1 100.41C1404.03 100.41 1408.69 98.9487 1412.07 96.026C1415.54 93.012 1417.28 89.176 1417.28 84.518C1417.28 80.8647 1416.27 77.8963 1414.26 75.613C1412.25 73.3297 1409.74 71.5943 1406.73 70.407C1403.71 69.2197 1399.65 67.941 1394.53 66.571C1388.23 64.927 1383.16 63.283 1379.33 61.639C1375.58 59.995 1372.34 57.4377 1369.6 53.967C1366.95 50.405 1365.63 45.6557 1365.63 39.719C1365.63 34.513 1366.95 29.9007 1369.6 25.882C1372.25 21.8633 1375.95 18.758 1380.7 16.566C1385.54 14.374 1391.06 13.278 1397.27 13.278C1406.22 13.278 1413.53 15.5157 1419.19 19.991C1424.95 24.4663 1428.19 30.403 1428.92 37.801H1415.22C1414.76 34.1477 1412.85 30.951 1409.47 28.211C1406.09 25.3797 1401.61 23.964 1396.04 23.964C1390.83 23.964 1386.59 25.334 1383.3 28.074C1380.01 30.7227 1378.37 34.4673 1378.37 39.308C1378.37 42.7787 1379.33 45.61 1381.24 47.802C1383.25 49.994 1385.67 51.6837 1388.51 52.871C1391.43 53.967 1395.49 55.2457 1400.7 56.707C1407 58.4423 1412.07 60.1777 1415.91 61.913C1419.74 63.557 1423.03 66.16 1425.77 69.722C1428.51 73.1927 1429.88 77.942 1429.88 83.97C1429.88 88.628 1428.65 93.012 1426.18 97.122C1423.71 101.232 1420.06 104.566 1415.22 107.123C1410.38 109.68 1404.67 110.959 1398.1 110.959ZM1507 14.511V24.649H1480.97V110H1468.5V24.649H1442.33V14.511H1507ZM1534.81 24.649V56.57H1569.61V66.845H1534.81V99.725H1573.72V110H1522.34V14.374H1573.72V24.649H1534.81ZM1689.44 15.196V110H1676.98V39.308L1645.47 110H1636.7L1605.05 39.171V110H1592.58V15.196H1606.01L1641.08 93.56L1676.15 15.196H1689.44ZM1740.86 110.959C1734.56 110.959 1728.9 109.863 1723.88 107.671C1718.94 105.388 1715.06 102.282 1712.23 98.355C1709.4 94.3363 1707.94 89.724 1707.85 84.518H1721.14C1721.59 88.9933 1723.42 92.7837 1726.62 95.889C1729.9 98.903 1734.65 100.41 1740.86 100.41C1746.8 100.41 1751.46 98.9487 1754.84 96.026C1758.31 93.012 1760.04 89.176 1760.04 84.518C1760.04 80.8647 1759.04 77.8963 1757.03 75.613C1755.02 73.3297 1752.51 71.5943 1749.49 70.407C1746.48 69.2197 1742.42 67.941 1737.3 66.571C1731 64.927 1725.93 63.283 1722.09 61.639C1718.35 59.995 1715.11 57.4377 1712.37 53.967C1709.72 50.405 1708.39 45.6557 1708.39 39.719C1708.39 34.513 1709.72 29.9007 1712.37 25.882C1715.02 21.8633 1718.71 18.758 1723.46 16.566C1728.3 14.374 1733.83 13.278 1740.04 13.278C1748.99 13.278 1756.3 15.5157 1761.96 19.991C1767.72 24.4663 1770.96 30.403 1771.69 37.801H1757.99C1757.53 34.1477 1755.61 30.951 1752.23 28.211C1748.85 25.3797 1744.38 23.964 1738.81 23.964C1733.6 23.964 1729.36 25.334 1726.07 28.074C1722.78 30.7227 1721.14 34.4673 1721.14 39.308C1721.14 42.7787 1722.09 45.61 1724.01 47.802C1726.02 49.994 1728.44 51.6837 1731.27 52.871C1734.2 53.967 1738.26 55.2457 1743.47 56.707C1749.77 58.4423 1754.84 60.1777 1758.67 61.913C1762.51 63.557 1765.8 66.16 1768.54 69.722C1771.28 73.1927 1772.65 77.942 1772.65 83.97C1772.65 88.628 1771.41 93.012 1768.95 97.122C1766.48 101.232 1762.83 104.566 1757.99 107.123C1753.15 109.68 1747.44 110.959 1740.86 110.959Z" fill="#4983E4"/>
</svg>
