<svg width="387" height="339" viewBox="0 0 387 339" fill="none" xmlns="http://www.w3.org/2000/svg">
<path d="M0 242.05H93.09V270.38H66.38V338.46H27.59V270.38H0V242.05Z" fill="#4983E4"/>
<path d="M140.24 281L120.64 338.46H83.38L119.92 242.05H160.38L197.79 338.46H160.08L140.24 281Z" fill="#4983E4"/>
<path d="M188.89 242.05H281.98V270.38H255.28V338.46H216.5V270.38H188.89V242.05Z" fill="#4983E4"/>
<path d="M329.14 281L309.54 338.46H272.28L308.83 242.05H349.28L386.68 338.46H348.98L329.14 281Z" fill="#4983E4"/>
<path fill-rule="evenodd" clip-rule="evenodd" d="M330.52 64.96C326.863 57.845 322.235 51.2722 316.77 45.43C303.97 31.62 285.92 20.12 264.55 12.22C243 4.22 218.43 0 193.46 0C168.49 0 143.92 4.22 122.34 12.22C101.01 20.12 82.95 31.62 70.15 45.43C64.6815 51.2755 60.0507 57.8515 56.39 64.97C84.21 58.22 131.8 49.36 175.98 48.42C180.24 48.33 183.18 49.7 185.11 52.15C187.46 55.15 187.28 65.76 187.23 70.51L185.97 193.43C188.46 193.51 190.97 193.57 193.46 193.57C195.95 193.57 198.46 193.57 200.99 193.44L199.73 70.51C199.66 65.76 199.48 55.13 201.84 52.15C203.78 49.7 206.71 48.33 210.97 48.42C255.13 49.35 302.7 58.24 330.52 64.96Z" fill="#4983E4"/>
<path fill-rule="evenodd" clip-rule="evenodd" d="M336.46 80.94C295.74 71.74 268.55 70.04 241.72 68.55C218.34 67.25 218.03 75.55 220.37 91.55C220.52 92.55 220.71 93.75 220.93 95.15C228.78 141.61 238.54 181.59 240.22 188.37C297.22 175.37 338.35 139.21 338.35 96.77C338.342 91.4342 337.708 86.1178 336.46 80.93" fill="#4983E4"/>
<path fill-rule="evenodd" clip-rule="evenodd" d="M166.58 91.56C168.91 75.56 168.58 67.25 145.23 68.56C118.39 70.05 91.2299 71.75 50.4699 80.96C49.2133 86.1431 48.5755 91.4568 48.5699 96.79C48.5699 115.13 56.0299 132.88 70.1499 148.13C82.9499 161.94 101.01 173.44 122.39 181.37C130.324 184.278 138.446 186.647 146.7 188.46C148.28 182.1 158.27 141.29 166.2 94C166.35 93.1 166.48 92.26 166.58 91.57" fill="#4983E4"/>
</svg>
