<svg width="26" height="26" viewBox="0 0 26 26" fill="none" xmlns="http://www.w3.org/2000/svg">
<path d="M13.114 11.0178V15.3367H20.2572C19.9686 17.1891 18.0994 20.767 13.114 20.767C8.81617 20.767 5.3065 17.2101 5.3065 12.8178C5.3065 8.42545 8.81722 4.86855 13.114 4.86855C15.5595 4.86855 17.1978 5.90654 18.1361 6.80915L21.5513 3.51568C19.3578 1.46803 16.5135 0.223267 13.114 0.223267C6.15033 0.223267 0.519531 5.85407 0.519531 12.8178C0.519531 19.7815 6.15033 25.4123 13.114 25.4123C20.3832 25.4123 25.2048 20.3021 25.2048 13.1054C25.2048 12.2783 25.1156 11.6465 25.0064 11.0178H13.114Z" fill="#8186A6"/>
</svg>
